<?xml version="1.0" encoding="UTF-8"?>
<svg id="Layer_1" data-name="Layer 1" xmlns="http://www.w3.org/2000/svg" viewBox="0 0 389.0161 73.0584">
  <path d="M121.5383,63.581h-22.8998l6.6871-6.606c-2.7363-4.5543-4.3104-9.8869-4.3104-15.587,0-16.7368,13.4588-30.195,30.1956-30.195s30.2739,13.4582,30.2739,30.195c0,16.4197-12.9182,29.7889-29.216,30.2903l.055-13.275c9.0196-.519,16.1741-7.9974,16.1741-17.1475,0-9.4858-7.69-16.9535-17.1764-16.9535s-17.1759,7.4676-17.1759,16.9535c0,2.0143.3466,3.948.9836,5.7438l6.4307-6.34v22.9566" fill="#ef4623"/>
  <polygon points="172.7359 63.6553 160.2749 15.8045 175.5709 15.8045 182.0193 46.459 182.4243 46.459 189.34 15.8045 204.2622 15.8045 211.3651 46.2412 211.7701 46.2412 218.0324 15.8045 233.3279 15.8045 220.8357 63.6553 204.543 63.6553 197.0663 35.7734 196.5365 35.7734 189.0598 63.6553 172.7359 63.6553" fill="#121921"/>
  <path d="M237.0218,63.6554V-.1454h15.2337v24.1432h.312c.6222-1.4533,1.5106-2.8549,2.6632-4.2055,1.1526-1.3495,2.6269-2.4556,4.4239-3.3178,1.7958-.8616,3.9508-1.2927,6.4642-1.2927,3.3223,0,6.433.8724,9.3299,2.6166,2.8974,1.7448,5.2384,4.4346,7.0246,8.0689,1.7862,3.6343,2.6796,8.2658,2.6796,13.8939,0,5.4205-.8565,9.9589-2.5701,13.6136-1.7136,3.6558-4.0188,6.3973-6.9157,8.2243-2.8975,1.8276-6.1114,2.7414-9.6419,2.7414-2.4096,0-4.497-.3948-6.2617-1.1838-1.7658-.789-3.2451-1.827-4.4392-3.1153-1.1946-1.2876-2.1135-2.6683-2.7568-4.1431h-.468v7.7569h-15.0777ZM251.944,39.73c0,2.5752.3477,4.8187,1.0437,6.7291.6954,1.911,1.7023,3.3904,3.0216,4.4392,1.3183,1.0488,2.902,1.5729,4.7506,1.5729,1.8696,0,3.4579-.5241,4.7665-1.5729,1.3086-1.0488,2.3001-2.5282,2.9751-4.4392.6745-1.9105,1.0125-4.1539,1.0125-6.7291s-.338-4.8079-1.0125-6.6979c-.675-1.8895-1.6614-3.3535-2.9598-4.3921-1.2978-1.0386-2.8923-1.5582-4.7818-1.5582-1.869,0-3.4579.5093-4.7665,1.5264-1.308,1.0182-2.3103,2.472-3.0057,4.3614-.696,1.8906-1.0437,4.1437-1.0437,6.7603" fill="#121921"/>
  <path d="M335.7047,42.6291v-3.8005c0-3.9253-.5718-7.4092-1.7136-10.4519-1.1423-3.0421-2.7415-5.602-4.7971-7.6792-2.0562-2.0761-4.4971-3.6445-7.3213-4.7041-2.8247-1.059-5.9399-1.5888-9.3457-1.5888-4.8186,0-9.0032,1.0335-12.5547,3.0999-3.5513,2.0665-6.3035,4.9531-8.2554,8.6606-1.9524,3.7068-2.9282,8.0326-2.9282,12.9749,0,5.0886.9707,9.4756,2.9128,13.1621,1.9417,3.6865,4.7246,6.5215,8.3486,8.5045,3.624,1.9836,7.939,2.9752,12.9443,2.9752,4.1741,0,7.8499-.6387,11.0281-1.9161,3.177-1.2769,5.7473-3.0733,7.7104-5.3893,1.9619-2.3154,3.2339-5.041,3.8159-8.1778l-13.9875-.4045c-.3948,1.0591-.9871,1.9519-1.7754,2.6791-.7898.7272-1.7346,1.2774-2.8357,1.6512-1.1003.3738-2.3257.5604-3.6758.5604-1.9524,0-3.6348-.405-5.0466-1.215-1.4124-.81-2.5027-1.9468-3.2712-3.4108-.7686-1.4646-1.1519-3.1725-1.1519-5.125v-.405h31.8999ZM308.2592,26.5389c1.3501-.7578,2.8765-1.1373,4.5793-1.1373,1.6824,0,3.1719.3585,4.4702,1.075,1.2979.7164,2.3213,1.7085,3.0688,2.9752.7476,1.2666,1.1316,2.7102,1.1526,4.3302h-17.7046c.0757-1.5383.4763-2.928,1.2249-4.1589.7891-1.2979,1.8586-2.3256,3.2087-3.084Z" fill="#121921"/>
  <polygon points="384.8872 5.7473 366.8015 5.7473 339.5078 39.8159 339.5078 53.1789 367.7334 53.1789 367.7334 63.7062 382.806 63.7062 382.806 53.1233 389.0161 53.1233 389.0161 40.626 382.8837 40.626 382.8837 33.7165 367.9665 33.7165 367.9665 40.6089 357.5765 40.6089 384.8872 5.7473" fill="#121921"/>
  <polygon points="29.6132 63.5717 47.1498 63.5717 29.5379 36.674 46.4671 15.8929 29.2709 15.8929 15.8618 32.9664 15.1791 32.9664 15.1791 0 0 0 0 63.5717 15.1791 63.5717 15.1791 49.2595 18.2511 45.5404 29.6132 63.5717" fill="#121921"/>
  <path d="M65.6426,36.3801v27.1917h-15.1791V15.893h14.4341v8.7546h.5271c1.0561-2.9194,2.8553-5.211,5.4014-6.8766s5.5771-2.4984,9.095-2.4984c3.3514,0,6.2653.7504,8.7381,2.2495,2.4728,1.5009,4.3965,3.5911,5.7729,6.2708,1.3764,2.6796,2.0537,5.8095,2.0335,9.3897v30.3893h-15.1791v-27.4095c.0201-2.6485-.6461-4.7168-2.0024-6.2085-1.3545-1.4899-3.2324-2.2349-5.6338-2.2349-1.5942,0-2.9945.3478-4.2061,1.0415-1.2099.6937-2.1415,1.6803-2.7931,2.9633-.6516,1.2831-.9884,2.8352-1.0085,4.6564Z" fill="#121921"/>
</svg>